#!OML:ASF F:\VICON\USERDATA\INSTALL\rory3\rory3.ASF
:FULLY-SPECIFIED
:DEGREES
1
root 0.697624 17.6628 -27.96050000000008 -0.23173099999999947 -0.0019633800000016244 0.06595990000000329
lfemur 10.254499999999954 -2.9672599999999987 -24.905400000000007
ltibia 32.707800000000006
lfoot -6.715259999999999 -10.162600000000007
ltoes -14.15
rfemur -30.84020000000004 2.732120000000002 24.0364
rtibia 31.525500000000008
rfoot -4.108950000000004 -3.3635800000000047
rtoes 5.567750000000003
lowerback nan -1.6172400000000025 -1.922350000000002
upperback -0.3239839999999992 -2.165070000000001 3.671160000000002
thorax -6.463600000000001 -0.9355770000000005 5.335560000000003
lowerneck -13.2911 -1.4148699999999974 -2.897629999999998
upperneck 21.0617 -0.8534959999999967 -2.0490900000000036
head 8.78774 -0.8539839999999994 -0.30741499999999994
lclavicle -2.3655400000000005e-14 1.3517400000000005e-14
lhumerus -25.52679999999999 5.366100000000003 81.2333
lradius 33.47569999999998
lwrist 7.337930000000001
lhand -30.468199999999996 20.2428
lfingers nan
lthumb -3.769549999999999 50.1893
rclavicle -2.3655400000000005e-14 1.3517400000000005e-14
rhumerus -41.251000000000005 -32.56890000000002 -62.48210000000004
rradius 18.07009999999999
rwrist 14.617300000000007
rhand -19.8034 nan
rfingers nan
rthumb 6.52959 -8.098400000000002
2
root 0.6161760000000006 17.7896 -27.15389999999993 -0.7527180000000016 -0.12689899999999876 -0.0011157600000020196
lfemur 6.214230000000013 -2.1518900000000016 -23.553300000000004
ltibia 41.11090000000001
lfoot 8.489479999999968 -17.576400000000014
ltoes -11.3231
rfemur -28.208499999999987 3.243280000000001 24.687000000000005
rtibia 33.15350000000001
rfoot -4.817839999999998 -5.004709999999999
rtoes 12.190200000000011
lowerback nan -1.4388400000000021 -1.9013899999999984
upperback -0.18284299999999892 -1.9425400000000062 3.431910000000003
thorax -6.4680300000000015 -0.8327369999999998 5.036419999999992
lowerneck -14.012099999999998 -1.629249999999998 -2.4747500000000002
upperneck 21.3028 -1.3358600000000034 -1.5368000000000004
head 9.00219 -0.9969440000000008 -0.26806800000000036
lclavicle -5.218100000000002e-15 3.9756900000000084e-14
lhumerus -26.569900000000008 6.080860000000007 81.3496
lradius 32.11430000000001
lwrist 7.1985699999999975
lhand -30.714999999999996 22.3884
lfingers nan
lthumb -4.007939999999998 52.3304
rclavicle -5.218100000000002e-15 3.9756900000000084e-14
rhumerus -41.5345 -33.05939999999998 -62.547200000000025
rradius 18.36340000000001
rwrist 13.112099999999984
rhand -19.6045 nan
rfingers nan
rthumb 6.721610000000003 -8.298780000000002
3
root 0.542597 17.953 -26.395200000000038 -0.6963939999999995 -0.3375219999999972 -1.6897900000000003
lfemur -1.0015299999999971 -1.5392700000000004 -20.6322
ltibia 51.199999999999996
lfoot 23.006799999999945 -21.436199999999975
ltoes 12.413200000000021
rfemur -25.047999999999988 4.428709999999999 27.0667
rtibia 32.17560000000002
rfoot -5.989180000000002 -4.971450000000002
rtoes 11.286899999999987
lowerback nan -1.3001799999999983 -0.2674129999999997
upperback -0.2238990000000008 -1.5190300000000005 3.6792200000000013
thorax -6.578600000000002 -0.6716460000000011 4.300180000000006
lowerneck -14.231299999999997 -1.9093100000000014 -2.1748499999999997
upperneck 20.9596 -1.9266699999999979 -0.9598740000000016
head 8.92725 -1.1842299999999997 -0.191168
lclavicle -2.335720000000005e-14 2.5444400000000038e-14
lhumerus -27.563100000000002 5.266080000000002 81.9597
lradius 30.699999999999992
lwrist 7.985940000000005
lhand -30.051000000000002 22.1039
lfingers nan
lthumb -3.366710000000001 52.0571
rclavicle -2.335720000000005e-14 2.5444400000000038e-14
rhumerus -40.564300000000024 -31.924500000000013 -64.21090000000001
rradius 18.762600000000013
rwrist 12.535499999999995
rhand -21.3577 nan
rfingers nan
rthumb 5.028959999999994 -7.733700000000001
4
root 0.4877300000000001 17.9941 -25.693199999999997 -1.0684600000000004 -1.4973499999999993 -2.535789999999999
lfemur -6.135390000000005 0.07385670000000055 -18.833499999999997
ltibia 60.02229999999998
lfoot 18.359400000000047 -21.294899999999977
ltoes 3.506240000000015
rfemur -21.98490000000001 5.4319000000000015 28.5334
rtibia 32.170899999999996
rfoot -7.93402 -4.6474
rtoes 14.069499999999984
lowerback nan -0.7171620000000012 0.7232849999999993
upperback 0.22622200000000053 -0.624472000000003 3.4420799999999994
thorax -6.469939999999999 -0.2735959999999987 3.3359799999999984
lowerneck -15.0052 -2.2277699999999996 -1.7274600000000002
upperneck 20.2489 -2.615949999999999 -0.2631410000000013
head 8.83097 -1.392719999999999 -0.11460099999999994
lclavicle -2.8376500000000022e-14 -9.541660000000013e-15
lhumerus -27.673899999999996 3.9202899999999996 82.3571
lradius 29.4609
lwrist 6.2480300000000035
lhand -27.6623 24.1841
lfingers nan
lthumb -1.0597099999999988 54.1612
rclavicle -2.8376500000000022e-14 -9.541660000000013e-15
rhumerus -38.064299999999996 -31.08210000000002 -67.03929999999997
rradius 19.35349999999999
rwrist 11.91549999999999
rhand -20.5831 nan
rfingers nan
rthumb 5.77684 -9.021749999999997
